<svg id="Layer_2" data-name="Layer 2" xmlns="http://www.w3.org/2000/svg" viewBox="0 0 416 384"><defs><style>.cls-1{fill:none;stroke:#fff;stroke-linecap:round;stroke-miterlimit:10;stroke-width:16px;}</style></defs><title>heart-hands</title><path class="cls-1" d="M363.67,224.55A114.5,114.5,0,1,0,197,69.51L132,135c60,50,114-44,114-44L360,203Z"/><path class="cls-1" d="M248,163l80,77s25.34,15.1,35.67-15.45"/><path class="cls-1" d="M328,240s7,48-33,40l-79.74-76.63"/><rect class="cls-1" x="61.95" y="202.33" width="90.33" height="44.44" rx="22.22" ry="22.22" transform="translate(-127.41 141.51) rotate(-45)"/><rect class="cls-1" x="96.41" y="236.79" width="90.33" height="44.44" rx="22.22" ry="22.22" transform="translate(-141.68 175.97) rotate(-45)"/><rect class="cls-1" x="131.41" y="271.79" width="90.33" height="44.44" rx="22.22" ry="22.22" transform="translate(-156.18 210.97) rotate(-45)"/><rect class="cls-1" x="166.41" y="305.79" width="90.33" height="44.44" rx="22.22" ry="22.22" transform="translate(-169.97 245.68) rotate(-45)"/><path class="cls-1" d="M75.18,225.07l-15-4.64a114.5,114.5,0,1,1,155-166.65"/><path class="cls-1" d="M249.68,315.6L260,313c35,14,35-33,35-33"/></svg>